<svg width="1256" height="460" viewBox="0 0 1256 460" fill="none" xmlns="http://www.w3.org/2000/svg">
<path d="M1253.55 383.817C1247.82 407.119 1225.01 425.178 1188.35 437.792C1151.71 450.399 1101.4 457.516 1040.98 459.035C920.131 462.074 758.939 442.723 586.054 400.252C413.169 357.78 261.36 300.237 155.678 241.548C102.834 212.202 61.5485 182.583 34.9269 154.437C8.28681 126.272 -3.56729 99.6958 2.15719 76.3939C7.88167 53.0919 30.701 35.0336 67.3592 22.4187C103.992 9.81247 154.302 2.69532 214.729 1.17578C335.576 -1.86311 496.767 17.4878 669.652 59.9596C842.537 102.431 994.346 159.974 1100.03 218.663C1152.87 248.009 1194.16 277.628 1220.78 305.774C1247.42 333.939 1259.27 360.515 1253.55 383.817Z" fill="white" stroke="black"/>
</svg>
